<?xml version="1.0" encoding="utf-8"?>
<!-- Generator: Adobe Illustrator 23.0.1, SVG Export Plug-In . SVG Version: 6.00 Build 0)  -->
<svg version="1.1" id="Capa_1" xmlns="http://www.w3.org/2000/svg" xmlns:xlink="http://www.w3.org/1999/xlink" x="0px" y="0px"
	 viewBox="0 0 24 24" style="enable-background:new 0 0 24 24;" xml:space="preserve">
<style type="text/css">
	.st0{fill:none;}
	.st1{opacity:0.3;fill-rule:evenodd;clip-rule:evenodd;enable-background:new    ;}
	.st2{fill-rule:evenodd;clip-rule:evenodd;}
</style>
<g>
	<rect id="bound" y="0" class="st0" width="24" height="24"/>
	<g>
		<path class="st1" d="M14,9.8c0.1,1,0,2-0.2,2.9c-0.2,0.8-0.4,1.5-0.8,2.2c-0.2,0.3-0.5,0.7-0.9,0.8s-0.7-0.3-1-0.6
			c-0.4-0.7-0.7-1.4-0.9-2.2c-0.2-1-0.3-2.1-0.2-3.1c-0.5,0.1-0.9,0.5-0.9,1s0,0.9,0,1.4C9,15.4,8.9,18.8,8.8,22
			c0.7,0.4,1.5,0.6,2.1,0.7c1.4,0.1,2.9,0,4.2-0.6c-0.1-3.6-0.2-7.4-0.3-11C15,10.3,14.6,9.9,14,9.8z"/>
		<path class="st1" d="M11.4,11.1c0.5,0.1,0.8,0.5,1.4,0.5c0.3,0,0.6,0,0.8-0.1c0.1-0.6,0.1-1.1,0.1-1.7c-1.1,0-2.2,0-3.4,0
			c0,0.5,0,0.8,0,1.3C10.8,11.1,11.2,11,11.4,11.1z"/>
		<path class="st1" d="M5.5,3.3c-0.1,0.4,0,0.9,0,1.3C5.8,9.3,6,13.9,6.3,18.5c0.1,0.6,0.4,1.2,0.8,1.6c-0.3-6-0.5-12-0.8-18
			C6,2.4,5.7,2.8,5.5,3.3z"/>
		<path class="st1" d="M17.9,2c-0.2,4.6-0.4,9.2-0.6,13.9c-0.1,1.4-0.1,2.8-0.2,4.2c0.6-0.4,0.9-1.1,0.9-1.8c0.2-4,0.4-7.9,0.7-11.9
			c0-0.9,0.1-1.7,0.1-2.6C18.7,3.1,18.4,2.5,17.9,2z"/>
	</g>
	<g>
		<path class="st2" d="M15.9,1.5c-2.6,0-5.2,0-7.9,0c-0.5,0-0.9,0.2-1.3,0.4C7,8,7.3,14.1,7.6,20.3c0.3,0.2,0.6,0.3,1,0.4
			c0.1-3.4,0.2-6.7,0.3-10.1c0-0.7,0.6-1.3,1.4-1.3c1.2,0,2.4,0,3.7,0c0.7,0,1.4,0.6,1.4,1.3c0.1,3.4,0.2,6.7,0.3,10.1
			c0.3-0.1,0.7-0.2,1-0.4c0.2-3.2,0.3-6.5,0.4-9.7c0.1-2.9,0.3-5.8,0.4-8.7C16.8,1.6,16.4,1.5,15.9,1.5z"/>
		<path class="st2" d="M12.7,11.8c-0.5-0.1-0.8-0.5-1.3-0.5c-0.3-0.1-0.7,0-0.9,0.1c0.1,1,0.4,2.2,0.8,3.1c0.2,0.3,0.4,0.8,0.7,0.8
			c0.4,0,0.6-0.4,0.7-0.7c0.5-0.8,0.7-1.9,0.8-2.9C13.4,11.8,13,11.8,12.7,11.8z"/>
	</g>
</g>
</svg>
