<?xml version="1.0" standalone="no"?>
<!DOCTYPE svg PUBLIC "-//W3C//DTD SVG 20010904//EN"
 "http://www.w3.org/TR/2001/REC-SVG-20010904/DTD/svg10.dtd">
<svg version="1.0" xmlns="http://www.w3.org/2000/svg"
 width="300.000000pt" height="84.000000pt" viewBox="0 0 300.000000 84.000000"
 preserveAspectRatio="xMidYMid meet">
<metadata>
Created by potrace 1.16, written by Peter Selinger 2001-2019
</metadata>
<g transform="translate(0.000000,84.000000) scale(0.100000,-0.100000)"
fill="#000000" stroke="none">
<path d="M0 420 l0 -420 1500 0 1500 0 0 420 0 420 -1500 0 -1500 0 0 -420z
m287 60 c24 -107 46 -202 49 -210 5 -12 36 89 114 373 10 35 13 37 54 37 l42
0 60 -216 60 -216 49 216 49 216 44 0 c31 0 43 -4 39 -13 -2 -6 -33 -126 -68
-265 l-64 -252 -47 0 c-36 0 -48 4 -52 18 -3 9 -28 98 -56 197 -28 99 -52 184
-53 189 -2 6 -30 -83 -62 -197 l-59 -207 -46 0 -47 0 -66 259 c-37 142 -67
262 -67 266 0 3 19 5 42 3 l42 -3 43 -195z m1423 185 c15 -8 38 -27 49 -41 42
-53 17 -171 -39 -189 -21 -7 -21 -8 9 -26 40 -24 61 -67 61 -127 0 -35 -6 -57
-21 -76 -38 -49 -66 -56 -214 -56 l-135 0 0 265 0 265 130 0 c96 0 139 -4 160
-15z m457 -1 c47 -23 67 -57 67 -115 0 -53 -24 -96 -61 -113 -20 -9 -19 -11
11 -31 89 -59 83 -194 -11 -240 -23 -11 -65 -15 -167 -15 l-136 0 0 265 0 265
131 0 c101 0 139 -4 166 -16z m233 -249 l0 -265 -35 0 -35 0 0 265 0 265 35 0
35 0 0 -265z m440 235 l0 -30 -75 0 -75 0 0 -235 0 -235 -40 0 -40 0 0 235 0
235 -75 0 -75 0 0 30 0 30 190 0 190 0 0 -30z m-1595 -200 c45 -118 89 -234
98 -258 l17 -42 -43 0 -43 0 -21 58 -20 57 -115 3 -115 3 -18 -61 -18 -60 -43
0 -44 0 24 62 c13 35 56 152 97 261 l74 198 45 -3 44 -3 81 -215z"/>
<path d="M1490 536 l0 -86 70 0 c74 0 123 17 134 45 12 31 6 73 -13 96 -17 21
-29 24 -105 28 l-86 3 0 -86z"/>
<path d="M1490 300 l0 -90 69 0 c37 0 83 5 101 11 66 24 72 122 9 154 -17 9
-57 15 -104 15 l-75 0 0 -90z"/>
<path d="M1950 535 l0 -87 81 4 c74 3 83 6 105 31 13 16 24 39 24 52 0 13 -11
36 -24 52 -22 25 -31 28 -105 31 l-81 4 0 -87z"/>
<path d="M1950 300 l0 -90 73 0 c110 0 161 41 143 115 -11 43 -60 65 -143 65
l-73 0 0 -90z"/>
<path d="M1073 452 c-23 -64 -40 -118 -39 -120 2 -1 42 -2 89 0 l85 3 -40 110
c-22 61 -43 113 -47 117 -3 4 -25 -45 -48 -110z"/>
</g>
</svg>
