<?xml version="1.0" standalone="no"?>
<!DOCTYPE svg PUBLIC "-//W3C//DTD SVG 20010904//EN"
 "http://www.w3.org/TR/2001/REC-SVG-20010904/DTD/svg10.dtd">
<svg version="1.0" xmlns="http://www.w3.org/2000/svg"
 width="500.000000pt" height="500.000000pt" viewBox="0 0 500.000000 500.000000"
 preserveAspectRatio="xMidYMid meet">
<metadata>
Created by potrace 1.16, written by Peter Selinger 2001-2019
</metadata>
<g transform="translate(0.000000,500.000000) scale(0.100000,-0.100000)"
fill="#000000" stroke="none">
<path d="M0 2500 l0 -2500 2500 0 2500 0 0 2500 0 2500 -2500 0 -2500 0 0
-2500z m1939 403 c10 -21 261 -745 261 -756 0 -4 -44 -7 -98 -7 l-98 0 -20 63
-20 62 -140 3 -140 3 -20 -63 -20 -63 -102 -3 -102 -3 91 263 c50 145 108 313
129 373 21 61 41 118 45 128 6 15 22 17 116 17 93 0 110 -2 118 -17z m-1389
-250 c35 -142 66 -264 69 -270 4 -7 33 94 65 225 33 130 63 252 68 270 l9 32
108 0 109 0 6 -32 c14 -75 119 -499 122 -495 2 2 26 111 54 243 27 131 52 249
55 262 5 21 10 22 105 22 55 0 100 -2 100 -4 0 -2 -47 -173 -105 -379 -58
-207 -105 -378 -105 -381 0 -3 -49 -6 -110 -6 l-109 0 -10 38 c-61 221 -121
435 -124 438 -2 2 -33 -103 -69 -233 l-65 -238 -109 0 -109 0 -37 130 c-20 72
-57 207 -82 301 -25 93 -57 203 -71 243 -13 41 -22 77 -19 82 3 5 47 9 99 9
l93 0 62 -257z m2225 230 c144 -78 157 -246 24 -322 l-51 -29 36 -12 c71 -23
126 -106 126 -186 -1 -42 -33 -106 -69 -137 -57 -47 -114 -57 -338 -57 l-203
0 0 386 0 385 218 -3 c200 -3 220 -5 257 -25z m714 12 c91 -32 141 -97 141
-186 0 -70 -27 -114 -91 -149 l-46 -25 48 -21 c110 -50 145 -201 67 -290 -65
-73 -86 -78 -340 -82 l-228 -4 0 386 0 386 204 0 c154 0 214 -4 245 -15z m481
-370 l0 -385 -95 0 -95 0 0 385 0 385 95 0 95 0 0 -385z m720 315 l0 -70 -105
0 -105 0 -2 -312 -3 -313 -92 -3 -93 -3 0 316 0 315 -105 0 -105 0 0 70 0 70
305 0 305 0 0 -70z"/>
<path d="M1816 2670 c-7 -19 -86 -253 -86 -257 0 -2 41 -3 90 -3 50 0 90 4 90
8 0 26 -89 264 -94 252z"/>
<path d="M2490 2685 l0 -85 64 0 c79 0 120 14 135 46 36 80 -9 124 -129 124
l-70 0 0 -85z"/>
<path d="M2490 2369 l0 -91 90 4 c77 3 93 6 112 26 34 33 31 97 -5 128 -25 21
-38 24 -113 24 l-84 0 0 -91z"/>
<path d="M3230 2685 l0 -85 70 0 c74 0 123 17 134 45 13 35 6 76 -19 100 -22
22 -32 25 -105 25 l-80 0 0 -85z"/>
<path d="M3230 2369 l0 -91 91 4 c85 3 92 5 115 31 33 39 31 81 -5 118 -28 28
-34 29 -115 29 l-86 0 0 -91z"/>
</g>
</svg>
