<svg xmlns="http://www.w3.org/2000/svg" viewBox="0 0 1166.2 805.48"><defs><style>.cls-1{fill:#fcfcfc;}</style></defs><g id="Graphic_Elements" data-name="Graphic Elements"><path class="cls-1" d="M679.51,389.15a112.29,112.29,0,1,0-173.29-141C500.89,253.45,53.78,804.52,49.6,810.85a112.3,112.3,0,1,0,173.29,141C228.23,946.55,675.34,395.48,679.51,389.15Z" transform="translate(-16.8 -197)"/><path class="cls-1" d="M938.22,650.63A112.3,112.3,0,1,0,765,509.53c-5.38,5.39-240.21,294.85-244.42,301.23A112.3,112.3,0,1,0,693.81,951.85C699.19,946.47,934,657,938.22,650.63Z" transform="translate(-16.8 -197)"/><circle class="cls-1" cx="1070.5" cy="309.5" r="112.5" transform="translate(506.53 1083.25) rotate(-76.72)"/><circle class="cls-1" cx="129.5" cy="309.5" r="112.5" transform="translate(-197.72 -14.78) rotate(-45)"/></g></svg>