<?xml version="1.0"?>
<svg xmlns="http://www.w3.org/2000/svg" xmlns:xlink="http://www.w3.org/1999/xlink" xmlns:svgjs="http://svgjs.com/svgjs" version="1.1" width="512" height="512" x="0" y="0" viewBox="0 0 32 32" style="enable-background:new 0 0 512 512" xml:space="preserve" class=""><g><path xmlns="http://www.w3.org/2000/svg" d="m1 7c0-3.31371 2.68629-6 6-6h18c3.3137 0 6 2.68629 6 6v18c0 3.3137-2.6863 6-6 6h-18c-3.31371 0-6-2.6863-6-6z" fill="#c9f7f5" data-original="#fffadd" style="" class=""/><g xmlns="http://www.w3.org/2000/svg" fill="#ffd200" fill-rule="evenodd"><path d="m22.2548 20.4167-2.2775 2.2775c-.0274.0275-.0555.0542-.0841.0803h1.1721c.657 0 1.1895-.5326 1.1895-1.1895zm-6.8181 2.3578c-.0378-.1469-.0477-.3016-.0268-.4558l.2389-1.7683c.0748-.5531.329-1.0664.7237-1.461l2.1642-2.1643c-2.9873-.6943-6.1656-.3046-8.93869 1.169-.368.1955-.59801.5782-.59801.995v2.4959c0 .6569.53257 1.1895 1.1895 1.1895z" fill="#ffffff" data-original="#ffd200" style="" class=""/><g><path d="m15.7334 8.5c-1.9709 0-3.5686 1.5977-3.5686 3.5686s1.5977 3.5686 3.5686 3.5686 3.5686-1.5977 3.5686-3.5686-1.5977-3.5686-3.5686-3.5686z" fill="#ffffff" data-original="#000000" style="" class=""/><path d="m16.3225 20.6414c.0548-.4056.2412-.782.5307-1.0715l4.1815-4.1815c.73-.73 1.9136-.73 2.6436 0s.73 1.9135 0 2.6435l-4.1816 4.1816c-.2894.2894-.6658.4758-1.0714.5307l-1.7683.2389c-.1576.0213-.3162-.0322-.4287-.1447s-.1661-.2711-.1448-.4288zm1.2516-.3505c-.1315.1316-.2163.3027-.2412.487l-.1493 1.1052 1.1051-.1494c.1844-.0249.3555-.1096.487-.2412l4.1816-4.1815c.3318-.3319.3318-.8698 0-1.2017-.3318-.3318-.8698-.3318-1.2016 0z" fill="#ffffff" data-original="#fae780" style="" class=""/></g></g></g></svg>
