<?xml version="1.0"?>
<svg xmlns="http://www.w3.org/2000/svg" xmlns:xlink="http://www.w3.org/1999/xlink" xmlns:svgjs="http://svgjs.com/svgjs" version="1.1" width="512" height="512" x="0" y="0" viewBox="0 0 32 32" style="enable-background:new 0 0 512 512" xml:space="preserve" class=""><g><path xmlns="http://www.w3.org/2000/svg" d="m1 7c0-3.31371 2.68629-6 6-6h18c3.3137 0 6 2.68629 6 6v18c0 3.3137-2.6863 6-6 6h-18c-3.31371 0-6-2.6863-6-6z" fill="#c9f7f5" data-original="#fffadd" style="" class=""/><g xmlns="http://www.w3.org/2000/svg" fill="#ffd200" fill-rule="evenodd"><path d="m16 10.9768c-1.5412 0-2.7906 1.2494-2.7906 2.7907s1.2494 2.7907 2.7906 2.7907c1.5413 0 2.7907-1.2494 2.7907-2.7907s-1.2494-2.7907-2.7907-2.7907z" fill="#1bc5bd" data-original="#ffd200" style="" class=""/><g><path d="m19.8201 17.5488c-2.3658-1.3577-5.2744-1.3577-7.6401 0-.284.163-.4591.4653-.4591.7927v1.3794c0 .7192.5831 1.3023 1.3024 1.3023h5.9535c.7192 0 1.3023-.5831 1.3023-1.3023v-1.3794c0-.3274-.1751-.6297-.459-.7927z" fill="#1bc5bd" data-original="#000000" style="" class=""/><g fill="#fae780"><path d="m22.6977 9.11628c.1027 0 .186.0833.186.18605v2.97677c0 .3082.2499.5581.5582.5581.3082 0 .5581-.2499.5581-.5581v-2.97677c0-.71926-.5831-1.30233-1.3023-1.30233h-2.9768c-.3082 0-.5581.24989-.5581.55814s.2499.55814.5581.55814z" fill="#1bc5bd" data-original="#fae780" style="" class=""/><path d="m9.30233 9.11628c-.10276 0-.18605.0833-.18605.18605v2.97677c0 .3082-.24989.5581-.55814.5581s-.55814-.2499-.55814-.5581v-2.97677c0-.71926.58307-1.30233 1.30233-1.30233h2.97677c.3082 0 .5581.24989.5581.55814s-.2499.55814-.5581.55814z" fill="#1bc5bd" data-original="#fae780" style="" class=""/><path d="m9.30233 22.8837c-.10276 0-.18605-.0833-.18605-.186v-2.9768c0-.3082-.24989-.5581-.55814-.5581s-.55814.2499-.55814.5581v2.9768c0 .7192.58307 1.3023 1.30233 1.3023h2.97677c.3082 0 .5581-.2499.5581-.5581 0-.3083-.2499-.5582-.5581-.5582z" fill="#1bc5bd" data-original="#fae780" style="" class=""/><path d="m22.6977 22.8837c.1027 0 .186-.0833.186-.186v-2.9768c0-.3082.2499-.5581.5582-.5581.3082 0 .5581.2499.5581.5581v2.9768c0 .7192-.5831 1.3023-1.3023 1.3023h-2.9768c-.3082 0-.5581-.2499-.5581-.5581 0-.3083.2499-.5582.5581-.5582z" fill="#1bc5bd" data-original="#fae780" style="" class=""/></g></g></g></g></svg>
