<svg xmlns="http://www.w3.org/2000/svg" xmlns:xlink="http://www.w3.org/1999/xlink" viewBox="0 0 1166.2 805.48"><defs><style>.cls-1{fill:url(#Degradado_sin_nombre_16);}.cls-2{fill:url(#Degradado_sin_nombre_16-2);}.cls-3{fill:url(#Degradado_sin_nombre_16-3);}.cls-4{fill:url(#Degradado_sin_nombre_16-4);}</style><linearGradient id="Degradado_sin_nombre_16" x1="16.8" y1="600" x2="712.31" y2="600" gradientUnits="userSpaceOnUse"><stop offset="0" stop-color="#091668"/><stop offset="1" stop-color="#8950fc"/></linearGradient><linearGradient id="Degradado_sin_nombre_16-2" x1="487.69" y1="730.69" x2="971.11" y2="730.69" xlink:href="#Degradado_sin_nombre_16"/><linearGradient id="Degradado_sin_nombre_16-3" x1="958" y1="309.5" x2="1183" y2="309.5" gradientTransform="translate(1125.77 -803.47) rotate(76.72)" xlink:href="#Degradado_sin_nombre_16"/><linearGradient id="Degradado_sin_nombre_16-4" x1="17" y1="309.5" x2="242" y2="309.5" gradientTransform="translate(256.78 -0.92) rotate(45)" xlink:href="#Degradado_sin_nombre_16"/></defs><g id="Graphic_Elements" data-name="Graphic Elements"><path class="cls-1" d="M679.51,389.15a112.29,112.29,0,1,0-173.29-141C500.89,253.45,53.78,804.52,49.6,810.85a112.3,112.3,0,1,0,173.29,141C228.23,946.55,675.34,395.48,679.51,389.15Z" transform="translate(-16.8 -197)"/><path class="cls-2" d="M938.22,650.63A112.3,112.3,0,1,0,765,509.53c-5.38,5.39-240.21,294.85-244.42,301.23A112.3,112.3,0,1,0,693.81,951.85C699.19,946.47,934,657,938.22,650.63Z" transform="translate(-16.8 -197)"/><circle class="cls-3" cx="1070.5" cy="309.5" r="112.5" transform="translate(506.53 1083.25) rotate(-76.72)"/><circle class="cls-4" cx="129.5" cy="309.5" r="112.5" transform="translate(-197.72 -14.78) rotate(-45)"/></g></svg>