<svg xmlns="http://www.w3.org/2000/svg" viewBox="0 0 959.14 939.58"><defs><style>.cls-1{fill:#fcfcfc;}</style></defs><g id="Graphic_Elements" data-name="Graphic Elements"><path class="cls-1" d="M664.84,293A92.36,92.36,0,1,0,522.32,177c-4.39,4.4-372.12,457.62-375.55,462.83a92.36,92.36,0,1,0,142.52,116C293.68,751.39,661.4,298.16,664.84,293Z" transform="translate(-119.79 -134.92)"/><path class="cls-1" d="M877.62,508A92.36,92.36,0,1,0,735.14,392c-4.43,4.43-197.56,242.5-201,247.75a92.36,92.36,0,1,0,142.47,116C681,751.32,874.16,513.26,877.62,508Z" transform="translate(-119.79 -134.92)"/><circle class="cls-1" cx="986.41" cy="227.45" r="92.53" transform="translate(418.63 1000.29) rotate(-76.72)"/><circle class="cls-1" cx="212.48" cy="227.45" r="92.53" transform="translate(-200.86 196.01) rotate(-66.37)"/><path class="cls-1" d="M381.85,894.14,329.07,1072.2H296l-37.4-134.77L218.9,1072.2l-32.79.25L135.64,894.14h31l36.89,145,40-145h32.79l37.15,144.24,37.15-144.24Z" transform="translate(-119.79 -134.92)"/><path class="cls-1" d="M405,963.31a64.44,64.44,0,0,1,57.78-34.59q16.65,0,29.08,6.54a58.94,58.94,0,0,1,19.85,16.27V931h29.47V1072.2H511.74v-21a58,58,0,0,1-20.24,16.65q-12.81,6.66-29.2,6.66a62,62,0,0,1-33.31-9.35A66.31,66.31,0,0,1,405,1039q-8.83-16.77-8.83-38T405,963.31Zm100.69,12.81A42.35,42.35,0,0,0,490,959.72a41.34,41.34,0,0,0-21-5.63,42,42,0,0,0-21,5.51,41.5,41.5,0,0,0-15.76,16.14q-6,10.63-6,25.23t6,25.62a42.47,42.47,0,0,0,15.89,16.79,40.73,40.73,0,0,0,20.88,5.76,41.25,41.25,0,0,0,21-5.64A42,42,0,0,0,505.72,1027q6-10.89,6-25.49T505.72,976.12Z" transform="translate(-119.79 -134.92)"/><path class="cls-1" d="M629.21,935.26A62.94,62.94,0,0,1,658,928.72a65,65,0,0,1,33.82,9,63.14,63.14,0,0,1,23.83,25.49q8.7,16.53,8.71,37.79t-8.71,38a65.1,65.1,0,0,1-24,26.13A63.11,63.11,0,0,1,658,1074.5q-16.39,0-29.08-6.4a55.93,55.93,0,0,1-20.11-16.4v20.5h-29.2V882.61h29.2V952A55.31,55.31,0,0,1,629.21,935.26Zm59.44,40.48a41.24,41.24,0,0,0-15.88-16.14,42.73,42.73,0,0,0-21.14-5.51,41.48,41.48,0,0,0-20.88,5.63,42,42,0,0,0-15.89,16.4q-6,10.77-6,25.37t6,25.49a41.61,41.61,0,0,0,57.91,16.4,42.52,42.52,0,0,0,15.88-16.79q6-11,6-25.62T688.65,975.74Z" transform="translate(-119.79 -134.92)"/><path class="cls-1" d="M802.92,935.26a62.94,62.94,0,0,1,28.82-6.54,65,65,0,0,1,33.82,9,63.11,63.11,0,0,1,23.82,25.49q8.72,16.53,8.72,37.79t-8.72,38a65,65,0,0,1-24,26.13,63.11,63.11,0,0,1-33.69,9.35q-16.4,0-29.08-6.4a55.93,55.93,0,0,1-20.11-16.4v20.5H753.34V882.61h29.21V952A55.31,55.31,0,0,1,802.92,935.26Zm59.43,40.48a41.24,41.24,0,0,0-15.88-16.14,42.7,42.7,0,0,0-21.14-5.51,41.54,41.54,0,0,0-20.88,5.63,42,42,0,0,0-15.88,16.4q-6,10.77-6,25.37t6,25.49a41.65,41.65,0,0,0,36.76,22.16,41.23,41.23,0,0,0,21.14-5.76,42.52,42.52,0,0,0,15.88-16.79q6-11,6-25.62T862.35,975.74Z" transform="translate(-119.79 -134.92)"/><path class="cls-1" d="M928.58,907a18.71,18.71,0,0,1,13.33-32A17.77,17.77,0,0,1,955,880.3,19.19,19.19,0,0,1,955,907a17.81,17.81,0,0,1-13.06,5.38A18.13,18.13,0,0,1,928.58,907ZM956.25,931V1072.2H927V931Z" transform="translate(-119.79 -134.92)"/><path class="cls-1" d="M1028.76,954.86V1033c0,5.3,1.23,9.09,3.71,11.4s6.7,3.46,12.68,3.46h17.94v24.34H1040q-19.74,0-30.23-9.23t-10.51-30V954.86H982.64V931h16.65v-35.1h29.47V931h34.33v23.83Z" transform="translate(-119.79 -134.92)"/></g></svg>