<svg id="Layer_1" enable-background="new 0 0 511.929 511.929" height="512" viewBox="0 0 511.929 511.929" width="512" xmlns="http://www.w3.org/2000/svg"><g><g><path d="m204.31 314.238c-106.942 0-193.636-27.086-193.636-60.498v116.539c27.179 25.268 103.602 43.471 193.636 43.471s166.457-18.203 193.636-43.471v-116.539c0 33.412-86.694 60.498-193.636 60.498z" fill="#80b4fb"/><path d="m114.816 307.398c-61.89-10.097-104.142-30.334-104.142-53.659v116.539c17.488 16.259 55.369 29.591 104.142 37.032z" fill="#5490f9"/><path d="m204.31 114.141c-106.942 0-193.636-12.794-193.636-46.207v96.201c0 33.412 86.694 60.498 193.636 60.498s193.636-27.086 193.636-60.498v-96.201c0 33.412-86.694 46.207-193.636 46.207z" fill="#80b4fb"/><path d="m114.816 110.424c-61.89-5.891-104.142-19.166-104.142-42.49v96.201c0 23.324 42.253 43.561 104.142 53.658z" fill="#5490f9"/><path d="m204.31 410.438c-106.942 0-193.636-27.086-193.636-60.498v94.002c0 33.412 86.694 60.498 193.636 60.498s193.636-27.085 193.636-60.498v-94.002c0 33.412-86.694 60.498-193.636 60.498z" fill="#9dc6fb"/><path d="m114.816 403.599c-61.89-10.097-104.142-30.334-104.142-53.659v94.002c0 23.324 42.253 43.562 104.142 53.658z" fill="#80b4fb"/><path d="m204.31 222.434c-106.942 0-193.636-27.086-193.636-60.498v94.002c0 33.412 86.694 60.498 193.636 60.498s193.636-27.086 193.636-60.498v-94.002c0 33.412-86.694 60.498-193.636 60.498z" fill="#9dc6fb"/><path d="m114.816 215.594c-61.89-10.097-104.142-30.334-104.142-53.658v94.002c0 23.324 42.253 43.562 104.142 53.659z" fill="#80b4fb"/><ellipse cx="204.31" cy="67.934" fill="#b1d7fb" rx="193.636" ry="60.498"/><path d="m99.351 67.934c0-23.004 20.72-43.743 53.903-58.368-82.167 7-142.58 30.477-142.58 58.368 0 27.89 60.413 51.368 142.58 58.368-33.183-14.625-53.903-35.364-53.903-58.368z" fill="#9dc6fb"/><path d="m498.24 44.204c-1.938-1.539-4.436-2.098-6.852-1.538-17.525 4.075-61.102 10.037-87.17-22.499-1.605-2.003-4.004-3.098-6.579-2.998l-.481.019v71.496h.5c24.637 0 44.681 20.044 44.681 44.681v.5h58.934v-83.379c-.001-2.462-1.106-4.752-3.033-6.282z" fill="#ff656f"/><path d="m442.339 132.864v.5c0 24.637-20.043 44.681-44.681 44.681h-.5v81.678l.494.006c.098.001.195.002.293.002 3.965 0 7.929-.916 11.48-2.654 27.616-13.521 91.847-49.014 91.847-86.443v-37.769h-58.933z" fill="#ffe181"/><g><g><path d="m397.158 242.947v16.776l.494.006c.098.001.195.002.293.002 3.965 0 7.929-.916 11.48-2.654 2.136-1.046 4.493-2.224 7.021-3.524-5.726-2.945-12.336-6.516-19.288-10.606z" fill="#fec458"/></g></g><path d="m352.977 133.364v-.5h-58.357v37.769c0 37.431 64.231 72.922 91.847 86.443 3.457 1.692 7.325 2.609 11.186 2.652l.505.006v-81.689h-.5c-24.637 0-44.681-20.044-44.681-44.681z" fill="#ff656f"/><path d="m331.62 170.632c0-5.146 0-20.068 0-37.769h-37v37.769c0 37.431 64.231 72.922 91.847 86.443 3.457 1.692 7.325 2.609 11.186 2.652l.505.006v-16.202c-29.844-17.425-66.538-44.606-66.538-72.899z" fill="#ff4756"/><path d="m398.158 88.683v-71.534l-.519.02c-2.335.089-4.509 1.182-5.965 2.998-26.068 32.535-69.645 26.572-87.17 22.499-2.417-.562-4.913-.002-6.852 1.538-1.927 1.53-3.032 3.82-3.032 6.282v83.378h58.357v-.5c0-24.637 20.043-44.681 44.681-44.681z" fill="#ffe181"/><g><g><path d="m331.62 50.486c0-1.666.517-3.247 1.441-4.573-11.662.087-21.958-1.713-28.557-3.247-2.417-.562-4.913-.002-6.852 1.538-1.927 1.53-3.032 3.82-3.032 6.282v83.378h37c0-32.632 0-75.29 0-83.378z" fill="#fec458"/></g></g><circle cx="397.658" cy="133.364" fill="#93d3a2" r="45.681"/><path d="m376.763 133.364c0-20.893 14.104-38.542 33.288-43.958-3.944-1.114-8.098-1.722-12.393-1.722-25.188 0-45.681 20.492-45.681 45.681s20.492 45.681 45.681 45.681c4.295 0 8.449-.609 12.393-1.722-19.183-5.418-33.288-23.067-33.288-43.96z" fill="#6ec17d"/></g><g><path d="m409.883 121.584-15.434 15.435-7.856-7.857c-2.93-2.928-7.678-2.928-10.607 0-2.929 2.93-2.929 7.678 0 10.607l13.16 13.16c1.465 1.464 3.385 2.196 5.304 2.196s3.839-.732 5.304-2.196l20.737-20.737c2.929-2.93 2.929-7.678 0-10.607-2.931-2.929-7.679-2.929-10.608-.001z"/><path d="m508.513 133.353v-82.878c0-9.691-9.023-16.832-18.469-14.638v-.001c-16.234 3.774-56.54 9.375-80.122-20.057-6.021-7.52-17.502-7.449-23.471-.001-4.436 5.536-9.464 9.831-14.813 13.134-103.927-51.449-368.222-31.671-368.222 39.011v376.008c0 44.166 103.63 67.998 201.136 67.998s201.136-23.832 201.136-67.998v-94.002-12.512c0-4.143-3.357-7.5-7.5-7.5s-7.5 3.357-7.5 7.5v12.512c0 12.238-19.234 25.555-51.451 35.62-74.268 23.203-195.142 23.19-269.369 0-32.217-10.065-51.451-23.382-51.451-35.62v-66.903c64.777 53.844 306.017 55.013 372.271-.081v19.472c0 4.143 3.357 7.5 7.5 7.5s7.5-3.357 7.5-7.5v-36.562c2.439-.566 4.813-1.405 7.058-2.504 9.179-4.494 23.124-11.771 37.438-20.925 3.49-2.231 4.51-6.869 2.278-10.358-2.23-3.49-6.871-4.511-10.358-2.278-16.807 10.746-34.586 19.516-36.703 20.435v-64.724c22.975-3.278 41.391-21.64 44.648-44.648h43.465v29.769c0 11.632-8.14 24.747-24.194 38.979-3.1 2.748-3.385 7.488-.637 10.588s7.487 3.385 10.588.637c19.404-17.203 29.243-34.095 29.243-50.204v-37.269zm-117.826 243.69v66.889c0 12.238-19.234 25.554-51.451 35.62-74.268 23.203-195.142 23.19-269.369 0-32.217-10.066-51.451-23.382-51.451-35.62v-66.889c65.312 54.257 306.98 54.239 372.271 0zm-.287-343.549v47.711c-23.037 3.287-41.4 21.707-44.648 44.648h-42.884l.065-75.405c30.483 7.087 64.226 4.403 87.467-16.954zm-185.848-18.569c57.758 0 112.091 8.197 147.607 21.851-14.722 3.409-31.234 2.453-45.827-.939-4.51-1.05-9.171-.002-12.79 2.873-3.609 2.866-5.68 7.154-5.68 11.765v64.481c-130.18 19.711-269.445-12.073-269.445-47.033-.001-24.454 75.639-52.998 186.135-52.998zm-186.136 80.112c46.101 38.313 178.076 48.465 269.445 35.09v40.495c0 13.301 6.673 25.507 15.115 35.78-132.411 24.984-284.56-8.132-284.56-44.477zm51.451 196.51c-32.217-10.066-51.451-23.382-51.451-35.62v-66.889c46.399 38.544 192.314 52.532 296.837 30.198 20.464 18.77 48.255 34.262 68.376 44.115 1.475.722 2.757 1.211 3.76 1.557-29.911 41.753-210.032 60.222-317.522 26.639zm320.533-41.593c-28.288-13.463-87.539-48.022-87.539-79.332v-29.769h42.891c3.255 22.99 21.638 41.365 44.648 44.648zm7.5-78.92c-20.777 0-37.681-16.903-37.681-37.681s16.903-37.681 37.681-37.681 37.681 16.903 37.681 37.681-16.903 37.681-37.681 37.681zm95.613-45.181h-43.465c-3.218-22.725-21.372-41.327-44.648-44.648v-48.258c29.036 27.298 70.544 21.568 88.041 17.501l.072.027z"/></g></g></svg>