<svg viewBox="0 0 512 512" xmlns="http://www.w3.org/2000/svg"><path d="m256 512c-141.386719 0-256-114.613281-256-256s114.613281-256 256-256 256 114.613281 256 256c0 39.132812-8.792969 76.207031-24.492188 109.375-18.421874 19.496094-33.808593 41.882812-45.417968 66.410156-46.667969 49.390625-112.777344 80.214844-186.089844 80.214844zm0 0" fill="#463b83"/><path d="m488.011719 364.296875c-11.730469 25.085937-27.394531 47.957031-46.214844 67.808594-25.316406 3.101562-49.640625-11.863281-58.0625-36.285157-17.878906-51.84375-66.683594-86.636718-121.523437-86.632812-2.066407 0-4.140626 0-6.210938 0s-4.144531 0-6.210938 0c-54.839843 0-103.640624 34.789062-121.523437 86.632812-8.824219 25.585938-35.101563 40.808594-61.6875 35.730469-29.535156-5.640625-48.90625-34.15625-43.265625-63.695312l33.777344-176.882813.0625.011719c5.980468-52.996094 50.945312-94.183594 105.539062-94.183594h186.578125c54.59375 0 99.5625 41.191407 105.539063 94.191407l.101562-.019532zm0 0" fill="#c1bbdf"/><path d="m452.523438 420.039062c-3.449219 4.132813-7.027344 8.160157-10.730469 12.066407-25.3125 3.101562-49.636719-11.863281-58.058594-36.285157-15.699219-45.507812-55.222656-77.871093-101.742187-85.101562 6.476562-1.003906 13.082031-1.53125 19.785156-1.53125h6.210937 6.210938c54.839843 0 103.640625 34.789062 121.523437 86.632812 3.371094 9.773438 9.292969 18.027344 16.800782 24.21875zm-156.875-303.828124 10.351562-19.410157h-100l8.613281 18.457031c3.285157 7.042969 10.355469 11.542969 18.125 11.542969h45.261719c7.386719 0 14.171875-4.070312 17.648438-10.589843zm-149.648438 23.789062c-19.492188 0-36.96875 8.59375-48.882812 22.183594 16.003906-38.394532 53.882812-65.382813 98.074218-65.382813h-32.5c-54.59375 0-99.558594 41.1875-105.539062 94.183594l-.0625-.011719-33.78125 176.882813c-5.640625 29.535156 13.730468 58.054687 43.269531 63.695312 9.09375 1.734375 18.144531 1.09375 26.480469-1.519531-26.089844-8.117188-42.496094-34.699219-37.25-62.179688l27.695312-145.003906c7.757813 27.214844 32.789063 47.152344 62.496094 47.152344 35.898438 0 65-29.101562 65-65s-29.101562-65-65-65zm220 130c35.898438 0 65-29.101562 65-65s-29.101562-65-65-65-65 29.101562-65 65 29.101562 65 65 65zm0 0" fill="#aba4d5"/><path d="m246 270c0 8.285156-6.714844 15-15 15s-15-6.714844-15-15 6.714844-15 15-15 15 6.714844 15 15zm35-15c-8.285156 0-15 6.714844-15 15s6.714844 15 15 15 15-6.714844 15-15-6.714844-15-15-15zm0 0" fill="#968dca"/><path d="m181 205c0 19.328125-15.671875 35-35 35s-35-15.671875-35-35 15.671875-35 35-35 35 15.671875 35 35zm0 0" fill="#fd3980"/><path d="m153.390625 239.210938c-2.382813.511718-4.855469.789062-7.390625.789062-19.328125 0-35-15.671875-35-35s15.671875-35 35-35c2.535156 0 5.007812.277344 7.390625.789062-15.78125 3.390626-27.613281 17.414063-27.613281 34.210938s11.832031 30.820312 27.613281 34.210938zm0 0" fill="#fd0464"/><path d="m416 195v20c0 5.523438-4.476562 10-10 10h-20v20c0 5.523438-4.476562 10-10 10h-20c-5.523438 0-10-4.476562-10-10v-20h-20c-5.523438 0-10-4.476562-10-10v-20c0-5.523438 4.476562-10 10-10h20v-20c0-5.523438 4.476562-10 10-10h20c5.523438 0 10 4.476562 10 10v20h20c5.523438 0 10 4.476562 10 10zm0 0" fill="#fdf061"/><path d="m376.726562 176.585938c1.261719 1.261718.371094 3.414062-1.414062 3.414062h-18.625c-1.78125 0-2.675781-2.152344-1.414062-3.414062l9.3125-9.3125c.78125-.78125 2.046874-.78125 2.828124 0zm-1.414062 53.414062h-18.625c-1.78125 0-2.675781 2.152344-1.414062 3.414062l9.3125 9.3125c.78125.78125 2.046874.78125 2.828124 0l9.316407-9.3125c1.257812-1.261718.363281-3.414062-1.417969-3.414062zm-37.726562-35.726562-9.3125 9.3125c-.78125.78125-.78125 2.046874 0 2.828124l9.3125 9.3125c1.261718 1.261719 3.414062.371094 3.414062-1.414062v-18.625c0-1.785156-2.152344-2.675781-3.414062-1.414062zm66.140624 9.3125-9.3125-9.3125c-1.261718-1.261719-3.414062-.371094-3.414062 1.414062v18.625c0 1.785156 2.152344 2.675781 3.414062 1.417969l9.3125-9.316407c.78125-.78125.78125-2.046874 0-2.828124zm0 0" fill="#d6bf01"/></svg>